<?xml version="1.0" standalone="no"?>
<!DOCTYPE svg PUBLIC "-//W3C//DTD SVG 20010904//EN"
 "http://www.w3.org/TR/2001/REC-SVG-20010904/DTD/svg10.dtd">
<svg version="1.0" xmlns="http://www.w3.org/2000/svg"
 width="1024.000000pt" height="1024.000000pt" viewBox="0 0 1024.000000 1024.000000"
 preserveAspectRatio="xMidYMid meet">

<g transform="translate(0.000000,1024.000000) scale(0.100000,-0.100000)"
fill="#000000" stroke="none">
<path d="M0 5120 l0 -5120 5120 0 5120 0 0 5120 0 5120 -5120 0 -5120 0 0
-5120z m5153 3208 c2 -7 2 -95 -1 -194 -5 -177 -4 -182 17 -200 23 -20 73 -48
421 -239 124 -68 257 -141 295 -163 l70 -40 3 -161 c1 -88 0 -161 -4 -161 -6
0 -214 115 -603 334 l-223 125 -42 -21 c-93 -47 -641 -353 -733 -409 -35 -21
-66 -39 -68 -39 -3 0 -5 74 -5 164 l0 165 28 19 c15 10 63 38 107 62 254 137
530 288 598 327 l77 45 0 199 0 199 29 0 c16 0 31 -6 34 -12z m183 -1036 c115
-65 340 -192 499 -281 160 -89 298 -171 308 -183 15 -18 18 -40 16 -165 0 -78
-5 -145 -9 -148 -10 -6 -25 2 -510 276 -190 108 -384 217 -432 242 l-87 47
-238 -131 c-383 -212 -695 -385 -743 -413 -25 -14 -48 -26 -53 -26 -4 0 -6 73
-5 162 l3 162 420 234 c231 128 463 258 515 287 52 29 98 53 101 54 3 1 100
-52 215 -117z m-118 -486 c129 -71 636 -355 837 -469 88 -49 168 -97 178 -105
15 -13 17 -35 17 -175 0 -139 -2 -158 -15 -153 -9 3 -261 145 -560 316 -299
170 -549 310 -555 310 -6 0 -77 -38 -158 -84 -81 -46 -287 -162 -458 -259
-170 -97 -356 -203 -412 -236 l-102 -60 0 168 0 169 88 49 c687 386 926 521
972 548 30 18 59 34 63 34 5 1 52 -23 105 -53z m260 -687 c196 -111 449 -253
562 -317 113 -63 247 -139 298 -169 l92 -54 0 -170 c0 -94 -3 -168 -7 -166 -5
2 -147 85 -318 184 -760 440 -974 563 -984 563 -8 0 -491 -273 -786 -445 -55
-32 -190 -110 -300 -173 -110 -62 -206 -119 -213 -124 -10 -9 -12 23 -10 163
l3 174 30 18 c26 16 562 319 715 404 30 17 168 94 305 171 138 78 251 141 253
142 2 0 164 -91 360 -201z m-239 -411 c58 -33 131 -76 161 -93 175 -102 330
-191 525 -302 358 -203 497 -286 501 -298 3 -6 3 -81 2 -167 l-3 -155 -115 67
c-63 37 -205 120 -315 185 -217 128 -557 326 -754 438 l-124 71 -31 -18 c-17
-10 -166 -96 -331 -191 -165 -95 -419 -244 -565 -331 -146 -87 -269 -161 -275
-163 -5 -2 -29 -17 -54 -33 -25 -15 -49 -28 -53 -28 -9 0 -11 262 -2 306 5 25
27 42 162 120 86 51 254 148 372 217 503 293 756 436 774 436 10 1 66 -27 125
-61z m12 -546 c172 -103 317 -188 744 -437 215 -125 402 -236 418 -247 l27
-19 0 -165 c0 -90 -2 -164 -5 -164 -2 0 -120 70 -262 157 -142 86 -436 264
-654 395 l-397 239 -133 -77 c-163 -94 -508 -301 -776 -465 -109 -67 -245
-151 -303 -186 l-105 -63 -3 162 c-3 155 -2 164 18 180 35 29 585 355 1035
613 94 54 188 109 210 121 22 13 47 24 56 24 9 0 68 -31 130 -68z m-197 -763
c18 -31 35 -165 36 -293 l0 -59 -127 5 c-99 4 -138 9 -173 25 -55 24 -80 48
-80 75 0 11 -10 28 -22 38 -20 16 -21 21 -10 58 7 22 18 42 25 45 16 6 57 -10
57 -23 0 -17 24 -11 37 9 10 16 8 22 -12 35 -40 27 -29 71 20 76 35 4 45 0 45
-17 0 -11 10 -4 33 21 54 63 135 66 171 5z m283 30 c15 -5 42 -24 59 -40 28
-27 31 -35 24 -65 -9 -39 -1 -43 25 -14 33 36 59 22 90 -49 25 -56 19 -105
-16 -146 -18 -20 -44 -42 -58 -50 -37 -19 -156 -29 -237 -20 l-66 7 4 141 c5
153 18 202 59 231 27 18 75 21 116 5z m-249 -583 c-3 -118 -6 -134 -27 -163
-13 -17 -38 -39 -56 -49 -33 -18 -34 -18 -75 11 -23 16 -46 37 -51 47 -8 14
-22 18 -64 18 l-54 0 -21 47 c-25 56 -28 99 -10 133 36 68 99 88 269 87 l93
-1 -4 -130z m323 127 c46 -9 139 -103 139 -141 0 -38 -12 -52 -46 -54 -24 -2
-63 -31 -64 -48 0 -3 10 -10 23 -15 42 -19 31 -95 -14 -95 -30 0 -49 27 -42
60 5 28 3 30 -25 30 -30 0 -31 -2 -29 -41 1 -43 -12 -59 -50 -59 -12 0 -25 5
-29 11 -3 6 -22 17 -40 25 -59 25 -69 52 -72 201 l-4 133 110 0 c60 0 125 -3
143 -7z m-246 -647 c208 -2 404 -223 405 -459 1 -182 -149 -364 -342 -417 -29
-7 -83 -11 -141 -8 -81 3 -102 8 -168 40 -189 89 -294 276 -262 465 24 138
107 258 228 329 56 32 172 66 195 57 8 -4 47 -7 85 -7z m-2453 -139 c79 -178
298 -697 298 -707 0 -6 -31 -10 -70 -10 l-70 0 -52 105 -53 105 -178 0 -178 0
-49 -105 -50 -105 -70 0 c-54 0 -70 3 -70 14 0 13 335 774 354 804 5 9 28 12
74 10 l66 -3 48 -108z m556 -58 l2 -167 33 -3 c17 -2 103 -3 190 -1 l157 3 0
170 0 170 73 -3 72 -3 3 -210 c2 -115 0 -301 -3 -412 l-7 -203 -69 0 -69 0 -2
173 -3 172 -187 3 -188 2 0 -175 0 -175 -75 0 -75 0 0 415 0 416 73 -3 72 -3
3 -166z m1073 155 c55 -16 148 -61 183 -86 17 -14 17 -17 -14 -71 -17 -31 -34
-57 -37 -57 -2 0 -43 19 -90 41 -66 33 -100 43 -153 47 -63 4 -70 3 -94 -21
-18 -18 -26 -37 -26 -61 0 -55 30 -73 220 -130 158 -47 224 -114 224 -226 -1
-39 -9 -70 -26 -105 -32 -63 -58 -87 -128 -119 -90 -42 -228 -33 -343 23 -55
27 -127 88 -127 108 0 18 58 93 72 93 6 0 24 -12 42 -27 17 -14 57 -39 89 -54
145 -68 271 -37 271 67 0 49 -35 81 -116 104 -37 11 -98 29 -135 40 -38 10
-87 33 -110 50 -134 99 -100 317 60 379 65 25 164 27 238 5z m1777 -15 c35
-13 80 -38 99 -54 l36 -31 -37 -57 -37 -58 -32 21 c-84 56 -190 85 -255 68
-33 -9 -62 -49 -62 -88 0 -40 49 -75 140 -99 236 -63 306 -127 298 -269 -4
-83 -30 -136 -87 -179 -53 -41 -106 -55 -201 -55 -120 1 -246 49 -313 120 -34
35 -29 53 27 95 l34 27 59 -39 c138 -93 304 -92 336 2 12 37 -16 91 -56 111
-18 8 -75 26 -127 41 -123 34 -186 69 -225 123 -27 39 -30 51 -30 115 1 113
49 183 151 222 60 23 203 15 282 -16z m442 -166 l1 -198 192 198 192 198 83
-1 c46 0 82 -4 80 -9 -1 -5 -73 -82 -158 -171 -85 -90 -156 -166 -158 -169 -1
-4 26 -45 61 -92 84 -111 257 -358 264 -375 4 -11 -12 -14 -81 -14 l-85 0
-120 168 c-66 92 -126 176 -134 186 -13 18 -18 16 -81 -49 l-66 -67 0 -120 0
-119 -67 3 -68 3 -3 413 -2 412 75 0 75 0 0 -197z m1165 65 c32 -73 110 -250
173 -393 62 -143 116 -270 119 -283 5 -23 4 -23 -68 -20 l-74 3 -49 103 -49
102 -182 0 -182 0 -49 -105 -48 -105 -73 0 c-40 0 -73 2 -73 4 0 3 74 172 165
377 91 204 165 374 165 378 0 3 9 21 20 39 19 31 22 32 83 32 l64 0 58 -132z
m-4649 -905 c67 -157 124 -298 124 -309 0 -30 -31 -11 -51 31 l-21 45 -92 0
-92 0 -22 -45 c-20 -41 -39 -55 -54 -39 -3 3 8 33 24 67 17 34 47 100 68 147
59 135 62 140 81 140 12 0 25 -14 35 -37z m759 -53 l7 -71 87 3 86 3 0 62 c0
36 5 67 13 74 26 28 33 -7 30 -172 -3 -156 -4 -164 -23 -164 -18 0 -20 8 -23
72 l-3 72 -84 3 -84 3 -3 -75 c-3 -67 -5 -75 -23 -75 -19 0 -20 8 -23 164 -2
122 1 166 10 172 20 13 26 2 33 -71z m1893 37 c3 -35 5 -37 38 -37 27 0 34 -4
34 -20 0 -16 -7 -20 -35 -20 l-36 0 3 -92 3 -93 38 -3 c30 -3 37 -7 35 -20 -5
-28 -75 -28 -104 -1 -22 21 -24 30 -24 115 0 83 -2 92 -20 97 -27 7 -25 35 3
39 18 2 23 10 25 41 3 30 7 37 20 35 12 -2 18 -15 20 -41z m-2276 -54 c19 -17
24 -43 9 -43 -5 0 -24 6 -42 14 -41 16 -79 6 -79 -22 0 -13 11 -24 33 -32 76
-28 98 -41 107 -65 33 -86 -97 -143 -172 -76 -25 23 -30 32 -21 42 9 9 20 7
47 -10 23 -14 47 -21 68 -19 29 3 33 7 33 32 0 26 -5 31 -52 46 -68 22 -83 36
-83 74 0 39 23 73 53 79 34 7 79 -1 99 -20z m1454 -14 c14 -15 17 -39 18 -126
1 -102 0 -108 -19 -108 -18 0 -20 8 -25 103 -5 111 -11 122 -62 122 -54 0 -68
-29 -68 -135 0 -88 -1 -95 -20 -95 -19 0 -20 7 -20 93 0 106 -13 137 -59 137
-48 0 -60 -25 -63 -130 -3 -87 -5 -95 -23 -95 -19 0 -20 8 -23 124 -1 68 2
129 7 134 5 5 17 4 31 -3 16 -9 25 -9 33 -1 19 19 92 13 112 -9 17 -19 18 -19
44 -1 48 34 100 30 137 -10z m1432 15 c13 -9 22 -24 22 -40 l0 -25 -26 20
c-39 31 -103 29 -135 -5 -36 -38 -34 -107 4 -140 34 -29 70 -30 122 -4 48 24
59 10 22 -27 -33 -33 -101 -42 -146 -19 -83 43 -95 164 -23 229 41 37 110 42
160 11z m-1938 -22 c49 -48 59 -96 34 -149 -29 -58 -77 -86 -142 -81 -70 6
-112 45 -119 110 -11 93 47 158 141 158 43 0 53 -4 86 -38z m811 22 c30 -15
68 -80 69 -116 0 -16 -12 -18 -105 -18 -116 0 -126 -6 -79 -54 33 -33 89 -35
127 -6 31 25 37 25 37 1 0 -33 -47 -61 -103 -61 -44 0 -53 4 -88 39 -38 38
-45 59 -40 121 7 83 106 134 182 94z m316 4 c6 -7 13 -21 17 -32 5 -16 3 -17
-16 -11 -13 4 -39 9 -60 12 -29 4 -38 1 -47 -15 -13 -25 -1 -36 56 -51 46 -13
83 -51 83 -86 0 -12 -12 -34 -26 -49 -34 -33 -98 -36 -138 -5 -45 35 -27 68
18 34 44 -33 124 -6 100 32 -6 9 -34 24 -64 34 -83 27 -104 76 -55 124 19 20
34 25 73 25 28 0 54 -6 59 -12z m1123 -3 c96 -50 93 -193 -5 -239 -64 -31
-143 -9 -182 50 -21 33 -21 105 1 139 39 59 124 82 186 50z m374 6 c4 -5 -32
-53 -79 -107 -47 -54 -85 -102 -85 -106 0 -5 34 -8 75 -8 68 0 75 -2 75 -20 0
-17 -7 -20 -42 -20 -85 0 -178 13 -178 24 0 7 36 53 80 104 44 50 80 94 80 97
0 3 -31 5 -70 5 -52 0 -70 3 -70 13 0 8 3 17 7 20 10 11 201 8 207 -2z m161
-98 c22 -56 43 -103 46 -103 3 0 24 46 45 103 32 83 43 103 62 105 13 2 22 -2
21 -10 0 -7 -30 -83 -67 -168 l-67 -155 -58 -3 c-46 -2 -57 0 -57 13 0 11 11
15 44 15 25 0 47 4 51 10 6 10 -49 159 -89 238 -14 28 -26 54 -26 57 0 4 12 5
27 3 24 -3 31 -14 68 -105z"/>
<path d="M5009 3165 c-129 -47 -198 -148 -198 -290 -1 -88 27 -153 92 -212 66
-61 107 -76 207 -77 70 -1 92 3 128 22 64 34 118 87 146 145 33 66 36 172 6
241 -29 70 -102 142 -166 166 -63 23 -160 26 -215 5z m209 -148 c12 -12 20
-27 17 -35 -2 -7 0 -10 5 -7 18 11 32 -48 27 -108 -5 -60 -38 -114 -60 -100
-6 3 -7 1 -3 -5 8 -13 -37 -38 -79 -46 -25 -5 -62 6 -115 33 -8 5 -27 25 -42
47 -66 97 -3 240 112 254 56 7 108 -5 138 -33z"/>
<path d="M5000 2775 c7 -8 17 -15 22 -15 5 0 3 7 -6 15 -8 8 -18 15 -22 15 -3
0 -1 -7 6 -15z"/>
<path d="M2530 2972 c-30 -75 -56 -143 -58 -149 -3 -10 26 -13 117 -13 80 0
121 4 121 11 0 13 -109 271 -118 281 -4 4 -32 -55 -62 -130z"/>
<path d="M7540 2983 c-78 -191 -84 -173 59 -173 67 0 121 4 121 9 0 10 -115
279 -122 287 -3 2 -29 -53 -58 -123z"/>
<path d="M3001 2154 c-17 -43 -29 -79 -27 -81 2 -2 33 -3 69 -1 l66 3 -29 69
c-17 38 -34 74 -38 78 -5 5 -23 -24 -41 -68z"/>
<path d="M4246 2145 c-36 -34 -37 -105 -1 -140 35 -36 88 -34 126 4 85 85 -37
218 -125 136z"/>
<path d="M5095 2145 c-40 -39 -32 -45 55 -45 88 0 99 9 57 48 -32 30 -81 29
-112 -3z"/>
<path d="M6519 2141 c-21 -22 -29 -39 -29 -66 0 -82 102 -127 156 -68 32 34
39 66 24 104 -27 65 -101 80 -151 30z"/>
</g>
</svg>
